<svg xmlns="http://www.w3.org/2000/svg" viewBox="0 0 64 64" role="img" aria-label="Hunger">
  <rect width="64" height="64" fill="#111"/>
  <path fill="#f4f1e8" d="M18 10h20v6h6v6h6v18h-6v6H32v8H14v-8H8V28h6v-8h4z"/>
  <path fill="#111" d="M20 16h16v6h6v6h6v10h-6v6H28v8H16v-8h-6V30h6v-8h4z"/>
  <path fill="#f4f1e8" d="M22 18h12v6h6v6h6v6h-6v6H28v8H18v-8h-6V32h6v-8h4z"/>
  <path fill="#111" d="M28 24h8v6h6v6h-8v6H22v-6h-4v-4h6v-4h4z"/>
  <path fill="#f4f1e8" d="M42 40h8v6h6v8h-6v4h-8v-6h-6v-8h6z"/>
  <path fill="#111" d="M44 44h6v4h4v4h-4v4h-6v-6h-6v-4h6z"/>
</svg>
