<?xml version="1.0" encoding="UTF-8"?>
<svg width="1024" height="1024" viewBox="0 0 512 512" xmlns="http://www.w3.org/2000/svg">
  <title>Dado poliédrico geométrico</title>
  <g fill="none" stroke="#1c1d1f" stroke-width="12" stroke-linecap="round" stroke-linejoin="round">
  <line x1="256" y1="38" x2="82" y2="160" />
  <line x1="256" y1="38" x2="430" y2="160" />
  <line x1="82" y1="160" x2="82" y2="352" />
  <line x1="430" y1="160" x2="430" y2="352" />
  <line x1="82" y1="352" x2="256" y2="474" />
  <line x1="256" y1="474" x2="430" y2="352" />
  <line x1="82" y1="160" x2="168" y2="230" />
  <line x1="430" y1="160" x2="344" y2="230" />
  <line x1="168" y1="230" x2="344" y2="230" />
  <line x1="256" y1="38" x2="168" y2="230" />
  <line x1="256" y1="38" x2="344" y2="230" />
  <line x1="82" y1="352" x2="168" y2="230" />
  <line x1="430" y1="352" x2="344" y2="230" />
  <line x1="168" y1="230" x2="256" y2="358" />
  <line x1="344" y1="230" x2="256" y2="358" />
  <line x1="82" y1="352" x2="256" y2="358" />
  <line x1="430" y1="352" x2="256" y2="358" />
  <line x1="256" y1="358" x2="256" y2="474" />
  </g>
</svg>
